<?xml version="1.0" encoding="UTF-8" standalone="no"?>
<!DOCTYPE svg PUBLIC "-//W3C//DTD SVG 1.1//EN" "http://www.w3.org/Graphics/SVG/1.1/DTD/svg11.dtd">
<svg width="100%" height="100%" viewBox="0 0 2048 1536" version="1.1" xmlns="http://www.w3.org/2000/svg" xmlns:xlink="http://www.w3.org/1999/xlink" xml:space="preserve" xmlns:serif="http://www.serif.com/" style="fill-rule:evenodd;clip-rule:evenodd;stroke-linejoin:round;stroke-miterlimit:2;">
    <g id="Layer1" transform="matrix(1,0,0,1,-1212.65,-620.441)">
        <g transform="matrix(1,0,0,1,1212.65,620.441)">
            <path d="M596.043,931.23C594.764,953.421 598.418,973.793 609.614,988.721C624.633,1008.75 643.787,1009.46 662.324,1001.81C676.747,995.85 690.741,984.291 701.151,974.327L701.091,974.538C697.858,986.393 692.576,1005.37 693.228,1021.99C693.74,1035.06 697.899,1046.69 707.648,1054C712.596,1057.71 718.443,1059.36 724.609,1059.68C732.028,1060.06 739.947,1058.41 746.515,1057.31C761.788,1054.77 776.257,1043.96 786.699,1031.53C788.309,1051.11 795.058,1062.31 803.75,1068.1C813.429,1074.54 826.363,1074.82 840.358,1070.78C858.245,1065.61 878.136,1053.51 893.379,1043.34C897.053,1040.89 898.047,1035.92 895.598,1032.25C893.149,1028.58 888.178,1027.58 884.504,1030.03C870.508,1039.36 852.34,1050.66 835.916,1055.41C827.03,1057.98 818.765,1058.87 812.619,1054.78C805.658,1050.14 802.327,1039.89 802.327,1022.13C802.327,1020.67 803.035,1010.19 801.429,1006.05C799.621,1001.39 796.157,999.574 792.507,999.574C789.482,999.574 787.227,1000.81 785.519,1002.94C784.719,1003.93 783.728,1006.84 783.369,1007.95C776.221,1022.05 760.951,1038.69 743.885,1041.53C739.155,1042.32 733.627,1043.54 728.204,1043.72C724.274,1043.85 720.355,1043.53 717.248,1041.2C711.305,1036.75 709.528,1029.33 709.215,1021.36C708.63,1006.42 713.621,989.404 716.527,978.748C717.429,975.44 719.657,970.648 721.295,966.186C722.792,962.108 723.802,958.203 723.869,955.291C723.969,950.944 722.358,947.766 719.899,945.719C718.15,944.263 715.778,943.169 712.448,943.169C711.853,943.169 709.005,943.148 706.08,946.133C702.946,949.333 689.047,965.983 671.888,978.108C655.813,989.467 636.399,997.767 622.414,979.121C611.204,964.174 610.077,942.503 613.254,919.69C615.149,906.082 618.658,892.07 622.912,878.651C631.984,859.796 640.595,840.736 648.84,821.496C652.818,812.215 654.909,791.817 654.909,791.817C655.318,787.561 652.308,783.735 648.074,783.132C643.841,782.529 639.881,785.361 639.085,789.563C639.085,789.563 636.133,805.705 632.512,812.947C625.08,827.812 615.58,849.252 608.11,872.513C596.521,896.56 584.173,920.261 570.858,943.561C538.086,1000.91 475.423,1145.5 403.035,1208.2C380.677,1227.57 357.55,1239.04 333.957,1235.79C310.012,1232.5 286.288,1214.2 262.533,1176.19C234.36,1131.11 241.962,1078.17 245.534,1028.16C260.222,822.527 325.909,669.347 481.263,529.529C533.631,482.398 607.96,433.527 673.571,407.283C707.324,393.782 737.578,382.581 749.286,381.191C750.337,381.964 751.592,382.489 752.976,382.67C757.354,383.242 761.373,380.153 761.946,375.774C762.596,370.8 759.911,364.441 749.488,365.107C738.127,365.832 704.789,377.563 667.628,392.428C600.403,419.318 524.216,469.345 470.559,517.636C311.835,660.488 244.581,816.926 229.575,1027.02C225.766,1080.33 218.932,1136.62 248.965,1184.67C276.161,1228.18 304.361,1247.87 331.775,1251.64C359.54,1255.47 387.198,1243.09 413.511,1220.3C487.132,1156.53 551.419,1009.83 584.75,951.499C588.592,944.776 592.355,938.019 596.043,931.23Z" style="fill:white;"/>
        </g>
        <g transform="matrix(1,0,0,1,1212.65,620.441)">
            <path d="M1192.38,357.614C1192.67,359.771 1192.95,362.102 1193.15,364.368C1194.96,385.236 1195.62,415.57 1195.72,418.336C1196.57,442.052 1198.82,465.803 1201.3,489.565C1198.55,491.492 1195.9,493.452 1193.35,495.434C1162.34,519.552 1131.95,540.808 1106.6,571.227C1072.8,611.787 1056.82,672.387 1051.13,738.326C1042.78,835.122 1056.3,943.437 1064.77,1013.99C1067.06,1033.07 1094.66,1131.03 1124.7,1184.66C1132.95,1199.38 1141.52,1210.84 1149.68,1217.07C1156.97,1222.64 1164.26,1224.47 1171.09,1222.76C1191.4,1217.68 1205.26,1198.55 1213.78,1172.21C1231.47,1117.53 1227.31,1031.13 1231.62,1005.25C1233.42,994.47 1236.24,983.384 1239.28,972.133C1242.91,972.331 1246.53,972.252 1250.09,971.857C1265.92,970.098 1281.85,965.504 1297.59,958.501C1310.85,970.454 1324.08,982.768 1336.35,995.036C1343.23,1001.93 1351.84,1017.02 1361.66,1035.17C1377.23,1063.95 1395.4,1100.19 1413.31,1126.2C1421.43,1137.98 1429.57,1147.72 1437.37,1154.05C1443.55,1159.06 1449.69,1162.05 1455.5,1162.88C1480.49,1166.44 1499.84,1154.04 1516.5,1141.14C1523.73,1135.54 1530.39,1129.92 1536.9,1126.14C1541.72,1123.35 1546.31,1121.48 1551.12,1122.69C1554.46,1123.52 1555.7,1126.09 1556.3,1129.17C1557.39,1134.82 1556.69,1141.84 1556.1,1148.85C1555.38,1157.42 1554.79,1165.98 1556.09,1172.87C1557.89,1182.36 1562.77,1189.28 1572.96,1191.83C1581.42,1193.94 1589.11,1191.54 1596.27,1185.87C1601.84,1181.46 1607.15,1174.84 1612.38,1167.44C1619.25,1157.7 1626.07,1146.49 1633.94,1138.44C1639.96,1132.27 1646.52,1127.89 1654.84,1129.96C1655.42,1130.11 1655.62,1130.63 1655.81,1131.15C1656.12,1131.98 1656.3,1132.9 1656.44,1133.88C1656.88,1137.04 1656.81,1140.67 1656.79,1144.32C1656.74,1151.52 1656.97,1158.77 1659.11,1164.15C1661.2,1169.41 1664.79,1173.34 1670.62,1175.28C1675.52,1176.91 1681.27,1175.94 1687.25,1172.28C1693.12,1168.68 1699.62,1162.25 1705.85,1155.75C1710.37,1151.04 1714.76,1146.32 1718.68,1143.12C1719.67,1142.32 1721.12,1141.43 1721.92,1140.97C1769.42,1164.43 1787.7,1158.43 1841.7,1162.93C1849.48,1163.58 1855.49,1166.85 1861.61,1169.65C1869.7,1173.35 1877.9,1176.45 1888.45,1175.67C1892.85,1175.35 1896.16,1171.51 1895.84,1167.1C1895.51,1162.7 1891.67,1159.39 1887.27,1159.71C1879.77,1160.27 1874.02,1157.73 1868.27,1155.1C1860.55,1151.56 1852.84,1147.8 1843.03,1146.98C1791.17,1142.66 1773.85,1149.05 1727.68,1125.97C1724.53,1124.39 1720.87,1124.16 1716.81,1125.67C1712.14,1127.41 1706.17,1132.46 1700,1138.76C1693.68,1145.21 1686.87,1152.98 1680.58,1157.51C1679.33,1158.4 1678.13,1159.16 1676.97,1159.65C1676.48,1159.86 1676.1,1160.24 1675.68,1160.1C1673.63,1159.42 1673.51,1157.22 1673.19,1155.01C1672.44,1149.85 1672.9,1143.71 1672.76,1138.17C1672.46,1126.21 1668.75,1116.95 1658.72,1114.44C1646.66,1111.43 1636.37,1115.19 1627.24,1122.84C1619.64,1129.2 1612.85,1138.49 1606.4,1147.9C1600.67,1156.26 1595.21,1164.71 1589.36,1170.6C1585.44,1174.53 1581.6,1177.5 1576.84,1176.31C1573.57,1175.49 1572.39,1172.94 1571.81,1169.89C1570.74,1164.24 1571.46,1157.21 1572.05,1150.19C1572.76,1141.61 1573.35,1133.03 1572.01,1126.12C1570.17,1116.66 1565.26,1109.73 1555.01,1107.16C1542,1103.91 1529.17,1111.04 1515.5,1121.61C1499.89,1133.69 1482.46,1150.57 1457.76,1147.04C1453.01,1146.36 1448.23,1142.76 1443.11,1137.71C1433.6,1128.35 1423.8,1113.91 1414.07,1097.64C1388.38,1054.66 1363.37,999.432 1347.66,983.722C1336.65,972.712 1324.88,961.663 1312.99,950.863C1338.37,936.974 1363.02,917.073 1385.7,892.997C1446.45,828.538 1493.29,734.311 1503.39,648.93C1510.29,590.638 1500.05,536.454 1466.49,497.889C1444,472.052 1411.01,453.067 1365.27,444.75C1318.63,436.271 1259.62,454.056 1216.33,479.844C1214.25,459.137 1212.45,438.438 1211.71,417.765C1211.61,414.958 1210.93,384.166 1209.09,362.983C1208.19,352.601 1206.72,344.291 1205.28,341.329C1203.13,336.925 1199.72,335.908 1197.35,335.835C1195.43,335.776 1193.35,336.267 1191.35,338.013C1190.14,339.061 1188.03,341.999 1186.61,348.043C1185.61,352.279 1188.19,356.527 1192.38,357.614ZM1203.24,508.007L1203.17,508.063C1173.08,531.464 1143.48,551.956 1118.89,581.47C1086.92,619.826 1072.45,677.345 1067.07,739.701C1058.82,835.347 1072.29,942.369 1080.66,1012.08C1082.87,1030.51 1109.66,1125.05 1138.66,1176.84C1144.54,1187.33 1150.45,1196.02 1156.32,1201.69C1160.2,1205.44 1163.6,1208.14 1167.21,1207.24C1177.13,1204.76 1184.45,1197.2 1190.24,1186.91C1196.85,1175.15 1201.36,1159.92 1204.59,1143.29C1214.82,1090.71 1212.18,1024.62 1215.84,1002.62C1217.63,991.894 1220.51,980.865 1223.61,969.679C1208.44,965.798 1194.74,957.984 1187.27,949.654C1180.36,941.948 1178.38,933.576 1181.25,926.517C1182.88,922.486 1186.21,918.553 1192.07,915.444C1198.44,912.062 1208.51,909.432 1223.29,908.611C1227.73,908.364 1232.5,908.239 1237.4,908.379C1238.02,901.59 1238.15,894.834 1237.6,888.151C1233.88,843.566 1221.03,796.481 1212.25,752.591C1203.17,707.182 1210.27,655.267 1210.27,609.1C1210.27,575.439 1206.83,541.716 1203.24,508.007ZM1250.91,925.41C1249,935.695 1246.36,946.01 1243.6,956.249C1245.19,956.225 1246.76,956.128 1248.32,955.955C1260.36,954.617 1272.44,951.464 1284.42,946.739C1279.36,942.258 1274.34,937.849 1269.41,933.536C1264.32,929.084 1257.82,926.66 1250.91,925.41ZM1235.15,924.212C1231.33,924.223 1227.62,924.395 1224.18,924.586C1214.31,925.135 1207.01,926.475 1201.9,928.508C1198.87,929.714 1196.78,930.804 1196.07,932.542C1195.68,933.502 1196.17,934.499 1196.73,935.559C1198.05,938.079 1200.44,940.54 1203.44,942.901C1209.67,947.803 1218.43,952.06 1227.88,954.379C1230.65,944.36 1233.27,934.27 1235.15,924.212ZM1300.38,939.511C1318.84,930.068 1336.93,917.098 1354.18,901.528C1405.19,855.463 1448.61,786.608 1471.71,716.511C1494.45,647.508 1497.73,577.246 1467.8,526.913C1448.19,493.942 1414.18,469.906 1362.4,460.492C1316.86,452.211 1258.71,471.402 1218.16,497.486C1222.1,534.71 1226.27,571.943 1226.27,609.1C1226.27,654.256 1219.06,705.038 1227.94,749.453C1236.83,793.924 1249.78,841.647 1253.54,886.822C1254.17,894.434 1253.97,902.14 1253.18,909.894C1263.14,911.645 1272.65,915.113 1279.95,921.495C1286.63,927.344 1293.48,933.368 1300.38,939.511Z" style="fill:white;"/>
        </g>
    </g>
</svg>
